<?xml version="1.0" encoding="UTF-8"?>
<svg width="16px" height="17px" viewBox="0 0 16 17" version="1.1" xmlns="http://www.w3.org/2000/svg" xmlns:xlink="http://www.w3.org/1999/xlink">
    <title>icon_pool_add</title>
    <g id="页面-1" stroke="none" stroke-width="1" fill="none" fill-rule="evenodd">
        <g id="pool_添加流动性_初次添加" transform="translate(-632.000000, -332.000000)">
            <g id="编组-5" transform="translate(400.000000, 134.500000)">
                <g id="icon_pool_add" transform="translate(232.000000, 198.000000)">
                    <path d="M5.33333333,0 L10.6666667,0 C13.6121853,-5.41083001e-16 16,2.38781467 16,5.33333333 L16,10.6666667 C16,13.6121853 13.6121853,16 10.6666667,16 L5.33333333,16 C2.38781467,16 3.60722001e-16,13.6121853 0,10.6666667 L0,5.33333333 C-3.60722001e-16,2.38781467 2.38781467,5.41083001e-16 5.33333333,0 Z" id="矩形" opacity="0" transform="translate(8.000000, 8.000000) rotate(-360.000000) translate(-8.000000, -8.000000) "></path>
                    <g id="编组-11" transform="translate(8.000000, 8.100000) rotate(-360.000000) translate(-8.000000, -8.100000) translate(0.500000, 0.600000)" fill="#281071">
                        <path d="M1.1,6.4 L13.9,6.4 C14.5075132,6.4 15,6.89248678 15,7.5 C15,8.10751322 14.5075132,8.6 13.9,8.6 L1.1,8.6 C0.492486775,8.6 5.18488122e-16,8.10751322 0,7.5 C-7.43989126e-17,6.89248678 0.492486775,6.4 1.1,6.4 Z" id="矩形" transform="translate(7.500000, 7.500000) rotate(-360.000000) translate(-7.500000, -7.500000) "></path>
                        <path d="M1.1,6.4 L13.9,6.4 C14.5075132,6.4 15,6.89248678 15,7.5 C15,8.10751322 14.5075132,8.6 13.9,8.6 L1.1,8.6 C0.492486775,8.6 -2.26855187e-13,8.10751322 -2.27373675e-13,7.5 C-2.27448074e-13,6.89248678 0.492486775,6.4 1.1,6.4 Z" id="矩形" transform="translate(7.500000, 7.500000) rotate(-90.000000) translate(-7.500000, -7.500000) "></path>
                    </g>
                </g>
            </g>
        </g>
    </g>
</svg>