<?xml version="1.0" encoding="UTF-8"?>
<svg width="17px" height="16px" viewBox="0 0 17 16" version="1.1" xmlns="http://www.w3.org/2000/svg" xmlns:xlink="http://www.w3.org/1999/xlink">
    <title>icon_trade_arrow</title>
    <g id="页面-1" stroke="none" stroke-width="1" fill="none" fill-rule="evenodd">
        <g id="swap_兑换交易二次确认" transform="translate(-756.000000, -273.000000)">
            <g id="编组-17" transform="translate(680.500000, 120.000000)">
                <g id="icon_trade_arrow" transform="translate(76.250000, 153.000000)">
                    <path d="M5.33333333,0 L10.6666667,0 C13.6121853,-5.41083001e-16 16,2.38781467 16,5.33333333 L16,10.6666667 C16,13.6121853 13.6121853,16 10.6666667,16 L5.33333333,16 C2.38781467,16 3.60722001e-16,13.6121853 0,10.6666667 L0,5.33333333 C-3.60722001e-16,2.38781467 2.38781467,5.41083001e-16 5.33333333,0 Z" id="矩形" opacity="0" transform="translate(8.000000, 8.000000) rotate(-90.000000) translate(-8.000000, -8.000000) "></path>
                    <g id="编组-11" transform="translate(8.000000, 8.000000) rotate(-90.000000) translate(-8.000000, -8.000000) translate(2.047602, 2.000000)" fill="#281071">
                        <path d="M1.25232887,5.1570454 L11.0618416,5.1570454 C11.5273925,5.1570454 11.9047962,5.53444903 11.9047962,6 C11.9047962,6.46555097 11.5273925,6.8429546 11.0618416,6.8429546 L1.25232887,6.8429546 C0.786777899,6.8429546 0.40937427,6.46555097 0.40937427,6 C0.40937427,5.53444903 0.786777899,5.1570454 1.25232887,5.1570454 Z" id="矩形" transform="translate(6.157085, 6.000000) rotate(-360.000000) translate(-6.157085, -6.000000) "></path>
                        <path d="M0.204472101,2.73355093 L6.94853896,2.73355093 C7.41408993,2.73355093 7.79149356,3.11095456 7.79149356,3.57650553 C7.79149356,4.0420565 7.41408993,4.41946013 6.94853896,4.41946013 L0.204472101,4.41946013 C-0.261078869,4.41946013 -0.638482498,4.0420565 -0.638482498,3.57650553 C-0.638482498,3.11095456 -0.261078869,2.73355093 0.204472101,2.73355093 Z" id="矩形" transform="translate(3.576506, 3.576506) rotate(-45.000000) translate(-3.576506, -3.576506) "></path>
                        <path d="M0.204472101,7.58053987 L6.94853896,7.58053987 C7.41408993,7.58053987 7.79149356,7.9579435 7.79149356,8.42349447 C7.79149356,8.88904544 7.41408993,9.26644907 6.94853896,9.26644907 L0.204472101,9.26644907 C-0.261078869,9.26644907 -0.638482498,8.88904544 -0.638482498,8.42349447 C-0.638482498,7.9579435 -0.261078869,7.58053987 0.204472101,7.58053987 Z" id="矩形" transform="translate(3.576506, 8.423494) scale(1, -1) rotate(-45.000000) translate(-3.576506, -8.423494) "></path>
                    </g>
                </g>
            </g>
        </g>
    </g>
</svg>