<?xml version="1.0" encoding="UTF-8"?>
<svg width="17px" height="17px" viewBox="0 0 17 17" version="1.1" xmlns="http://www.w3.org/2000/svg" xmlns:xlink="http://www.w3.org/1999/xlink">
    <title>icon_trande_exchange</title>
    <g id="2.0改版" stroke="none" stroke-width="1" fill="none" fill-rule="evenodd">
        <g id="swap_hover状态" transform="translate(-626.000000, -332.000000)" fill="#FFFFFF">
            <g id="编组-5" transform="translate(400.000000, 134.500000)">
                <g id="icon_trande_exchange" transform="translate(226.250000, 198.250000)">
                    <rect id="矩形" opacity="0" x="0" y="0" width="16" height="16"></rect>
                    <path d="M4.69273129,0.218432639 C4.75106673,0.264988278 4.80400682,0.317928362 4.85056246,0.376263802 L8.13791504,4.49540301 L5.068,4.495 L5.06895752,12.32777 C5.06895752,12.8800547 4.62124227,13.32777 4.06895752,13.32777 C3.51667277,13.32777 3.06895752,12.8800547 3.06895752,12.32777 L3.068,4.495 L0,4.49540301 L3.28735258,0.376263802 C3.63185332,-0.0554046852 4.26106281,-0.126068104 4.69273129,0.218432639 Z" id="形状结合"></path>
                    <path d="M12.5548163,2.89066269 C12.6131517,2.93721833 12.6660918,2.99015841 12.7126474,3.04849385 L16,7.16763306 L12.930085,7.16712231 L12.9310425,15 C12.9310425,15.5522847 12.4833272,16 11.9310425,16 C11.3787577,16 10.9310425,15.5522847 10.9310425,15 L10.930085,7.16712231 L7.86208496,7.16763306 L11.1494375,3.04849385 C11.4939383,2.61682536 12.1231478,2.54616194 12.5548163,2.89066269 Z" id="形状结合" transform="translate(11.931042, 9.034561) scale(1, -1) translate(-11.931042, -9.034561) "></path>
                </g>
            </g>
        </g>
    </g>
</svg>