<?xml version="1.0" encoding="UTF-8"?>
<svg width="16px" height="17px" viewBox="0 0 16 17" version="1.1" xmlns="http://www.w3.org/2000/svg" xmlns:xlink="http://www.w3.org/1999/xlink">
    <title>icon_tip</title>
    <g id="页面-1" stroke="none" stroke-width="1" fill="none" fill-rule="evenodd">
        <g id="swap_折叠2" transform="translate(-440.000000, -496.000000)">
            <g id="编组-5" transform="translate(400.000000, 134.500000)">
                <g id="trande-list" transform="translate(24.000000, 343.137537)">
                    <g id="icon_tip" transform="translate(16.000000, 19.000000)">
                        <rect id="矩形" stroke="#3B199F" stroke-width="0.666666667" fill="#3B199F" opacity="0" x="0.333333333" y="0.333333333" width="15.3333333" height="15.3333333"></rect>
                        <circle id="椭圆形" stroke="#3B199F" stroke-width="1.04347826" cx="8" cy="8" r="6"></circle>
                        <path d="M8,10.0458412 C8.4995074,10.0458412 8.90448406,10.4506967 8.90448406,10.9503253 C8.90448406,11.4498327 8.4995074,11.8548093 8,11.8548093 C7.5004926,11.8548093 7.09551594,11.4498327 7.09551594,10.9503253 C7.09551594,10.4506979 7.5004926,10.0458412 8,10.0458412 Z M7.97398899,4.14519067 C8.40425531,4.14519067 8.75299498,4.49393152 8.75299498,4.92419666 L8.75299498,4.92419666 L8.75299498,8.559721 C8.75299498,8.98986619 8.40425413,9.33872699 7.97398899,9.33872699 C7.54372268,9.33872699 7.19498301,8.98998614 7.19498301,8.559721 L7.19498301,8.559721 L7.19498301,4.92419666 C7.19498301,4.49405147 7.54372386,4.14519067 7.97398899,4.14519067 Z" id="形状结合" fill="#3B199F" transform="translate(8.000000, 8.000000) scale(1, -1) translate(-8.000000, -8.000000) "></path>
                    </g>
                </g>
            </g>
        </g>
    </g>
</svg>