<?xml version="1.0" encoding="UTF-8"?>
<svg width="24px" height="24px" viewBox="0 0 24 24" version="1.1" xmlns="http://www.w3.org/2000/svg" xmlns:xlink="http://www.w3.org/1999/xlink">
    <title>icon_warming</title>
    <g id="控件" stroke="none" stroke-width="1" fill="none" fill-rule="evenodd">
        <g id="icon_warming">
            <rect id="矩形" fill="#D8D8D8" opacity="0" x="0" y="0" width="24" height="24"></rect>
            <g id="警告" transform="translate(0.000000, 1.797340)" fill="#E93E5E" fill-rule="nonzero">
                <path d="M14.0638594,0.989549843 C14.1109808,1.06808547 14.2719789,1.33903295 14.546854,1.80239436 C14.8217297,2.26575576 15.1672852,2.85084598 15.5835252,3.55766729 C15.9997652,4.26448861 16.4670519,5.06555277 16.9853875,5.96085977 C17.5037231,6.85616677 18.0377667,7.77110693 18.5875158,8.70568255 C19.137265,9.64025817 19.6830889,10.5669787 20.2249852,11.4858464 C20.7668815,12.4047141 21.2616565,13.2489721 21.70931,14.0186228 C22.1569635,14.7882734 22.5417876,15.4479733 22.8637848,15.9977225 C23.1857819,16.5474716 23.4096087,16.924443 23.535265,17.1286366 C23.7708721,17.5213158 23.916164,17.9139928 23.9711382,18.3066721 C24.0261131,18.6993514 24.0025524,19.052762 23.9004561,19.3669041 C23.7983597,19.6810461 23.6177275,19.9362887 23.3585597,20.1326272 C23.0993919,20.3289663 22.7813223,20.4192832 22.4043509,20.4035753 C22.2158652,20.4035753 21.8153332,20.3996485 21.2027547,20.391795 C20.5901762,20.3839414 19.8519414,20.3800146 18.9880479,20.3800146 L16.0429591,20.3800146 L12.7208989,20.3800146 C11.5899848,20.3800146 10.4669235,20.3839414 9.35171729,20.391795 C8.23651109,20.3996485 7.19983982,20.4035753 6.24170349,20.4035753 L3.72070747,20.4035753 L2.11857915,20.4035753 C1.52170858,20.4035753 1.06227473,20.301479 0.740277582,20.0972861 C0.418280438,19.8930932 0.202308792,19.6299994 0.092358042,19.3080023 C-0.0175920172,18.9860051 -0.0293723725,18.636522 0.0570169762,18.2595507 C0.143406325,17.8825793 0.296551634,17.5291686 0.516450832,17.1993187 C0.626400891,17.0265402 0.842373228,16.6731303 1.16437037,16.1390867 C1.48636752,15.6050432 1.87511924,14.9571236 2.33062554,14.1953281 C2.78613185,13.4335326 3.28876187,12.5931998 3.83851102,11.6743321 C4.38826016,10.7554644 4.94586441,9.82088875 5.51132147,8.87060752 C6.07677852,7.9203263 6.62652767,6.99753103 7.16057121,6.10222403 C7.69461475,5.20691703 8.17368176,4.39800007 8.59777455,3.67547085 C9.02186734,2.95294162 9.375278,2.35607105 9.65800652,1.88485684 L10.1527814,1.06023197 C10.3726813,0.71467412 10.6593367,0.451581052 11.0127474,0.270948171 C11.366158,0.0903159804 11.7313491,0 12.1083204,0 C12.4852918,0 12.8504828,0.0824624869 13.2038935,0.247387461 C13.5573041,0.412312435 13.8439602,0.659699895 14.0638594,0.989549843 Z M13.4748416,5.60744911 C13.4748416,5.41896343 13.4316471,5.2422581 13.3452577,5.07733312 C13.2588684,4.91240815 13.1449917,4.76319108 13.0036274,4.62967962 C12.8622632,4.49616885 12.7012657,4.39014497 12.5206329,4.31161003 C12.3400007,4.23307441 12.1554418,4.19380648 11.9669562,4.19380648 C11.6056927,4.19380648 11.2719152,4.33517074 10.965626,4.61789927 C10.6593367,4.90062779 10.5061921,5.22262494 10.5061921,5.5838884 L10.5061921,11.7567946 C10.5061921,12.118058 10.6593367,12.4439827 10.965626,12.7345641 C11.2719152,13.0251454 11.6056927,13.1704372 11.9669562,13.1704372 C12.3439275,13.1704372 12.6894854,13.0329998 13.0036274,12.7581248 C13.3177695,12.483249 13.4748416,12.1651794 13.4748416,11.803916 L13.4748416,5.60744911 L13.4748416,5.60744911 Z M11.9669562,14.5605191 C11.5585713,14.5605191 11.2090859,14.7018834 10.9185045,14.9846119 C10.6279232,15.2673404 10.4826314,15.6128983 10.4826314,16.0212832 C10.4826314,16.4296681 10.6279225,16.7791535 10.9185045,17.0697348 C11.2090859,17.3603161 11.5585713,17.5056079 11.9669562,17.5056079 C12.375341,17.5056079 12.7208989,17.3603168 13.0036274,17.0697348 C13.2863559,16.7791535 13.4277202,16.4296681 13.4277202,16.0212832 C13.4277202,15.6128983 13.2863559,15.2673404 13.0036274,14.9846119 C12.7208989,14.7018834 12.375341,14.5605191 11.9669562,14.5605191 Z" id="形状"></path>
            </g>
        </g>
    </g>
</svg>