<?xml version="1.0" encoding="UTF-8"?>
<svg width="16px" height="16px" viewBox="0 0 16 16" version="1.1" xmlns="http://www.w3.org/2000/svg" xmlns:xlink="http://www.w3.org/1999/xlink">
    <title>icon_tip</title>
    <g id="页面-1" stroke="none" stroke-width="1" fill="none" fill-rule="evenodd">
        <g id="trade_交易设置弹窗1" transform="translate(-638.000000, -259.000000)">
            <g id="编组-5" transform="translate(484.000000, 198.500000)">
                <g id="icon_tip" transform="translate(154.000000, 60.500000)">
                    <rect id="矩形" stroke="#979797" stroke-width="0.666666667" fill="#D8D8D8" opacity="0" x="0.333333333" y="0.333333333" width="15.3333333" height="15.3333333"></rect>
                    <g id="编组-17" transform="translate(2.000000, 2.000000)" stroke="#ABA5BD" stroke-width="1.04347826">
                        <circle id="椭圆形" cx="6" cy="6" r="6"></circle>
                    </g>
                    <path d="M8,10.0458412 C8.4995074,10.0458412 8.90448406,10.4506967 8.90448406,10.9503253 C8.90448406,11.4498327 8.4995074,11.8548093 8,11.8548093 C7.5004926,11.8548093 7.09551594,11.4498327 7.09551594,10.9503253 C7.09551594,10.4506979 7.5004926,10.0458412 8,10.0458412 Z M7.97398899,4.14519067 C8.40425531,4.14519067 8.75299498,4.49393152 8.75299498,4.92419666 L8.75299498,4.92419666 L8.75299498,8.559721 C8.75299498,8.98986619 8.40425413,9.33872699 7.97398899,9.33872699 C7.54372268,9.33872699 7.19498301,8.98998614 7.19498301,8.559721 L7.19498301,8.559721 L7.19498301,4.92419666 C7.19498301,4.49405147 7.54372386,4.14519067 7.97398899,4.14519067 Z" id="形状结合" fill="#ABA5BD" transform="translate(8.000000, 8.000000) scale(1, -1) translate(-8.000000, -8.000000) "></path>
                </g>
            </g>
        </g>
    </g>
</svg>