<?xml version="1.0" encoding="UTF-8"?>
<svg width="16px" height="17px" viewBox="0 0 16 17" version="1.1" xmlns="http://www.w3.org/2000/svg" xmlns:xlink="http://www.w3.org/1999/xlink">
    <title>icon_back</title>
    <g id="页面-1" stroke="none" stroke-width="1" fill="none" fill-rule="evenodd">
        <g id="pool_添加流动性_初次添加" transform="translate(-424.000000, -161.000000)">
            <g id="编组-5" transform="translate(400.000000, 134.500000)">
                <g id="icon_back" transform="translate(24.000000, 27.137537)">
                    <path d="M5.33333333,0 L10.6666667,0 C13.6121853,-5.41083001e-16 16,2.38781467 16,5.33333333 L16,10.6666667 C16,13.6121853 13.6121853,16 10.6666667,16 L5.33333333,16 C2.38781467,16 3.60722001e-16,13.6121853 0,10.6666667 L0,5.33333333 C-3.60722001e-16,2.38781467 2.38781467,5.41083001e-16 5.33333333,0 Z" id="矩形" opacity="0"></path>
                    <g id="编组-11" transform="translate(0.117554, 0.170796)" fill="#3B199F">
                        <path d="M1.63412298,6.72925985 L14.4342352,6.72925985 C15.0417174,6.72925985 15.5341791,7.2217215 15.5341791,7.82920373 C15.5341791,8.43668597 15.0417174,8.92914762 14.4342352,8.92914762 L1.63412298,8.92914762 C1.02664074,8.92914762 0.534179094,8.43668597 0.534179094,7.82920373 C0.534179094,7.2217215 1.02664074,6.72925985 1.63412298,6.72925985 Z" id="矩形" transform="translate(8.034179, 7.829204) rotate(-360.000000) translate(-8.034179, -7.829204) "></path>
                        <path d="M0.266808956,3.56692119 L9.06692119,3.56692119 C9.67440342,3.56692119 10.1668651,4.05938284 10.1668651,4.66686507 C10.1668651,5.27434731 9.67440342,5.76680896 9.06692119,5.76680896 L0.266808956,5.76680896 C-0.340673275,5.76680896 -0.833134926,5.27434731 -0.833134926,4.66686507 C-0.833134926,4.05938284 -0.340673275,3.56692119 0.266808956,3.56692119 Z" id="矩形" transform="translate(4.666865, 4.666865) rotate(-45.000000) translate(-4.666865, -4.666865) "></path>
                        <path d="M0.266808956,9.89159851 L9.06692119,9.89159851 C9.67440342,9.89159851 10.1668651,10.3840602 10.1668651,10.9915424 C10.1668651,11.5990246 9.67440342,12.0914863 9.06692119,12.0914863 L0.266808956,12.0914863 C-0.340673275,12.0914863 -0.833134926,11.5990246 -0.833134926,10.9915424 C-0.833134926,10.3840602 -0.340673275,9.89159851 0.266808956,9.89159851 Z" id="矩形" transform="translate(4.666865, 10.991542) scale(1, -1) rotate(-45.000000) translate(-4.666865, -10.991542) "></path>
                    </g>
                </g>
            </g>
        </g>
    </g>
</svg>