<?xml version="1.0" encoding="UTF-8"?>
<svg width="24px" height="24px" viewBox="0 0 24 24" version="1.1" xmlns="http://www.w3.org/2000/svg" xmlns:xlink="http://www.w3.org/1999/xlink">
    <title>编组 7</title>
    <defs>
        <linearGradient x1="4.80696801%" y1="63.9487441%" x2="129.243207%" y2="38.3864341%" id="linearGradient-1">
            <stop stop-color="#FFC859" offset="0%"></stop>
            <stop stop-color="#F02222" offset="100%"></stop>
        </linearGradient>
        <linearGradient x1="24.1200931%" y1="26.5226237%" x2="74.9944768%" y2="88.6531257%" id="linearGradient-2">
            <stop stop-color="#0097FF" offset="5%"></stop>
            <stop stop-color="#B930C0" offset="99%"></stop>
        </linearGradient>
        <linearGradient x1="53.7405606%" y1="112.324035%" x2="41.2556603%" y2="0.15557626%" id="linearGradient-3">
            <stop stop-color="#367DFF" offset="0%"></stop>
            <stop stop-color="#31FFA1" offset="100%"></stop>
        </linearGradient>
    </defs>
    <g id="页面-1" stroke="none" stroke-width="1" fill="none" fill-rule="evenodd">
        <g id="soswap-登陆备份" transform="translate(-457.000000, -322.000000)">
            <g id="编组-7" transform="translate(457.000000, 322.000000)">
                <circle id="椭圆形备份-4" stroke="#F7F8FA" fill="#F9FAFB" cx="12" cy="12" r="11.5"></circle>
                <g id="SherpaX-logo" transform="translate(5.000000, 5.000000)" fill-rule="nonzero">
                    <path d="M0.215386003,11.9999998 L4.46715648,11.9999998 C4.54414595,11.9999221 4.61525132,11.9594248 4.65371188,11.8937492 C4.69217243,11.8280736 4.69215135,11.7471868 4.65365655,11.6815306 L2.52831033,8.05575949 C2.48980853,7.99002313 2.41860433,7.94952047 2.34154075,7.94952047 C2.26447716,7.94952047 2.19327296,7.99002313 2.15477117,8.05575949 L0.0288859291,11.6815306 C-0.00960886802,11.7471868 -0.00962995633,11.8280736 0.0288306008,11.8937492 C0.067291158,11.9594248 0.13839653,11.9999221 0.215386003,11.9999998 Z" id="路径" fill="url(#linearGradient-1)"></path>
                    <path d="M9.77432332,4.89442251 L3.46781793,7.49047677 C3.41057233,7.51392091 3.36634603,7.56049709 3.34643094,7.61831341 C3.32651585,7.67612973 3.33283958,7.73959008 3.36378754,7.79249167 L5.76726682,11.8938434 C5.80574178,11.9594659 5.87681692,11.999922 5.95376689,12 L13.7840749,12 C13.8611607,12.0001117 13.9324425,11.9596894 13.9710346,11.8939791 C14.0096267,11.8282688 14.009657,11.7472689 13.971114,11.6815306 L10.0443711,4.98412465 C9.99011738,4.89155046 9.87443622,4.85312449 9.77432332,4.89442251 Z" id="路径" fill="url(#linearGradient-2)"></path>
                    <path d="M6.81565596,0.106239015 L3.23388431,6.217131 C3.18781433,6.29594023 3.19782656,6.39488965 3.25878265,6.46319781 C3.31973875,6.53150597 3.41810252,6.55400405 3.50339309,6.5191459 L9.27519306,4.14336612 C9.33234446,4.11981629 9.37644664,4.07319543 9.39625453,4.01539081 C9.41606242,3.9575862 9.40966171,3.89418431 9.37868443,3.84135123 L7.18919513,0.106239015 C7.15069333,0.0405026549 7.07948913,0 7.00242554,0 C6.92536196,0 6.85415776,0.0405026549 6.81565596,0.106239015 Z" id="路径" fill="url(#linearGradient-3)"></path>
                </g>
            </g>
        </g>
    </g>
</svg>